# Blender v2.79 (sub 0) OBJ File: 'cOMBAT COMPUTER.blend'
# www.blender.org
mtllib HE_COMBAT_COMPUTER.mtl
o Cylinder
v 0.000000 0.069871 -0.369126
v 0.000000 0.069871 -0.229384
v 0.041069 0.056527 -0.369126
v 0.041069 0.056527 -0.229384
v 0.066452 0.021591 -0.369126
v 0.066452 0.021591 -0.229384
v 0.066452 -0.021591 -0.369126
v 0.066452 -0.021591 -0.229384
v 0.041069 -0.056527 -0.369126
v 0.041069 -0.056527 -0.229384
v -0.000000 -0.069871 -0.369126
v -0.000000 -0.069871 -0.229384
v -0.041069 -0.056527 -0.369126
v -0.041069 -0.056527 -0.229384
v -0.066452 -0.021591 -0.369126
v -0.066452 -0.021591 -0.229384
v -0.066452 0.021591 -0.369126
v -0.066452 0.021591 -0.229384
v -0.041069 0.056527 -0.369126
v -0.041069 0.056527 -0.229384
v -0.132023 -0.132023 0.500000
v 0.132022 -0.132023 0.500000
v -0.000000 -0.000000 0.600000
v -0.132023 0.132023 0.500000
v -0.000000 -0.000000 0.600000
v 0.132022 0.132023 0.500000
v -0.000000 -0.000000 0.600000
v 0.132022 -0.132023 0.500000
v 0.132022 0.132023 0.500000
v -0.132023 0.132023 0.500000
v -0.132023 -0.132023 0.500000
v -0.000000 -0.000000 0.600000
v 0.132023 0.500000 -0.132023
v -0.132023 0.500000 -0.132023
v 0.000000 0.600000 0.000000
v 0.132023 -0.500000 -0.132023
v 0.132023 -0.500000 0.132023
v 0.000000 -0.600000 0.000000
v 0.132023 0.500000 0.132023
v 0.000000 0.600000 0.000000
v -0.132023 0.500000 0.132023
v 0.000000 0.600000 0.000000
v -0.132023 0.500000 -0.132023
v -0.132023 0.500000 0.132023
v 0.132023 0.500000 0.132023
v 0.132023 0.500000 -0.132023
v 0.000000 0.600000 0.000000
v -0.132023 -0.500000 -0.132023
v 0.000000 -0.600000 0.000000
v -0.132023 -0.500000 0.132023
v 0.000000 -0.600000 0.000000
v 0.132023 -0.500000 0.132023
v -0.132023 -0.500000 0.132023
v -0.132023 -0.500000 -0.132023
v 0.132023 -0.500000 -0.132023
v 0.000000 -0.600000 0.000000
v -0.500000 -0.500000 0.500000
v -0.500000 0.500000 0.500000
v -0.465064 -0.500000 -0.465064
v -0.465064 0.500000 -0.465064
v 0.500000 -0.500000 0.500000
v 0.500000 0.500000 0.500000
v 0.465064 -0.500000 -0.465064
v 0.465064 0.500000 -0.465064
v 0.465064 -0.500000 0.309028
v 0.465064 0.500000 0.309028
v 0.500000 0.257918 0.309028
v 0.500000 0.258702 -0.500000
v 0.500000 -0.257918 0.309028
v 0.500000 -0.257918 -0.500000
v -0.500000 -0.257918 -0.500000
v -0.500000 0.257918 -0.500000
v -0.465064 -0.500000 0.309028
v -0.465064 0.500000 0.309028
v -0.500000 0.257918 0.309028
v -0.500000 -0.257918 0.309028
v 0.301403 0.257918 0.309028
v 0.301403 0.258702 -0.301403
v 0.301403 -0.257918 0.309028
v 0.301403 -0.257918 -0.301403
v -0.301403 0.257918 -0.301403
v -0.301403 -0.257918 -0.301403
v -0.301403 0.257918 0.309028
v -0.301403 -0.257918 0.309028
v 0.500000 0.258702 -0.301403
v 0.500000 -0.257918 -0.301403
v -0.500000 0.257918 -0.301403
v -0.500000 -0.257918 -0.301403
v 0.301403 0.258702 -0.301402
v 0.301403 -0.257918 -0.301402
v -0.301403 0.257918 -0.301403
v -0.301403 -0.257918 -0.301403
v 0.301403 0.086573 -0.301403
v 0.301403 0.086573 0.309028
v 0.301403 -0.003322 -0.301403
v 0.301403 -0.003322 0.309028
v 0.301403 0.086573 -0.133884
v 0.301403 0.086573 0.191595
v 0.301403 -0.003322 -0.133884
v 0.301403 -0.003322 0.191595
v 0.373331 0.086573 -0.133884
v 0.373331 0.086573 0.191595
v 0.373331 -0.003322 -0.133884
v 0.373331 -0.003322 0.191595
v 0.301403 -0.003322 -0.245313
v 0.301403 -0.003322 -0.156923
v 0.301403 -0.257918 -0.156923
v 0.301403 -0.257918 -0.245313
v 0.301403 -0.205619 -0.245313
v 0.301403 -0.130666 -0.245313
v 0.301403 -0.130666 -0.156923
v 0.301403 -0.205619 -0.156923
v 0.319905 -0.205619 -0.245313
v 0.319905 -0.130666 -0.245313
v 0.319905 -0.130666 -0.156923
v 0.319905 -0.205619 -0.156923
v 0.301403 -0.003322 -0.085454
v 0.301403 -0.003322 0.238718
v 0.301403 -0.257918 0.238718
v 0.301403 -0.257918 -0.085454
v 0.301403 -0.084329 0.238718
v 0.301403 -0.118804 0.238718
v 0.301403 -0.118804 -0.085454
v 0.301403 -0.084329 -0.085454
v 0.301403 -0.186025 0.238718
v 0.301403 -0.217200 0.238718
v 0.301403 -0.217200 -0.085454
v 0.301403 -0.186025 -0.085454
v 0.301403 -0.084329 0.238718
v 0.301403 -0.118804 0.238718
v 0.301403 -0.186025 -0.085454
v 0.301403 -0.118804 -0.085454
v 0.301403 -0.084329 -0.085454
v 0.301403 -0.186025 0.238718
v 0.301403 -0.217200 0.238718
v 0.301403 -0.217200 -0.085454
v 0.381753 -0.186025 0.238718
v 0.381753 -0.217200 0.238718
v 0.381753 -0.217200 -0.085454
v 0.381753 -0.186025 -0.085454
v 0.381753 -0.084329 0.238718
v 0.381753 -0.118804 0.238718
v 0.381753 -0.118804 -0.085454
v 0.381753 -0.084329 -0.085454
v -0.301403 0.174425 -0.301403
v 0.301403 0.174425 -0.301402
v 0.223586 -0.257918 -0.301403
v 0.223586 0.174425 -0.301403
v 0.124074 -0.257918 -0.301403
v 0.124074 0.174425 -0.301403
v 0.223586 0.081246 -0.301403
v 0.124074 0.081246 -0.301403
v 0.223586 -0.118281 -0.301403
v 0.124074 -0.118281 -0.301403
v 0.223586 0.081246 -0.328532
v 0.124074 0.081246 -0.328532
v 0.223586 -0.118281 -0.328532
v 0.124074 -0.118281 -0.328532
v -0.301403 0.257918 0.003209
v -0.301403 0.257918 -0.206387
v -0.301403 -0.257918 -0.206387
v -0.301403 -0.257918 0.003209
v -0.301403 0.107552 0.003209
v -0.301403 0.177232 0.003209
v -0.301403 0.176917 -0.206387
v -0.301403 0.107552 -0.206387
v -0.301403 -0.029123 0.003209
v -0.301403 0.041587 0.003209
v -0.301403 0.041587 -0.206387
v -0.301403 -0.029123 -0.206387
v -0.301403 -0.029123 -0.076187
v -0.301403 0.177076 -0.076188
v -0.301403 0.041447 -0.076187
v -0.301403 0.106075 -0.076187
v -0.301403 -0.029123 -0.131820
v -0.301403 0.041487 -0.132001
v -0.301403 0.177029 -0.132349
v -0.301403 0.106504 -0.132168
v -0.341363 0.107553 0.003209
v -0.341363 0.177232 0.003209
v -0.341363 0.176917 -0.206387
v -0.341363 0.107553 -0.206387
v -0.341363 0.177076 -0.076188
v -0.341363 0.106504 -0.132168
v -0.341364 -0.029122 0.003209
v -0.341363 0.041587 0.003209
v -0.341363 0.041587 -0.206387
v -0.341364 -0.029122 -0.206387
v -0.341363 0.041447 -0.076187
v -0.341363 -0.029122 -0.131820
v -0.341363 -0.029122 -0.076187
v -0.341363 0.106075 -0.076187
v -0.341363 0.041487 -0.132001
v -0.341363 0.177030 -0.132349
v -0.500000 0.454223 0.309028
v -0.500000 0.454223 -0.500000
v 0.500000 0.454223 -0.500000
v 0.500000 0.454223 0.309028
v -0.500000 -0.454223 0.309028
v -0.500000 -0.454223 -0.500000
v 0.500000 -0.454223 -0.500000
v 0.500000 -0.454223 0.309028
vt 0.602413 0.976854
vt 0.602413 0.931565
vt 0.615723 0.931566
vt 0.615723 0.976855
vt 0.552465 0.976857
vt 0.552465 0.931569
vt 0.563787 0.931565
vt 0.563787 0.976854
vt 0.577782 0.931565
vt 0.577782 0.976854
vt 0.589104 0.931569
vt 0.589104 0.976857
vt 0.642343 0.931566
vt 0.642343 0.976855
vt 0.629033 0.976854
vt 0.629033 0.931565
vt 0.615723 0.976855
vt 0.615723 0.931566
vt 0.552465 0.931566
vt 0.552465 0.976854
vt 0.541143 0.976857
vt 0.541143 0.931569
vt 0.527148 0.976857
vt 0.527148 0.931569
vt 0.437819 0.935889
vt 0.451128 0.931565
vt 0.464438 0.935889
vt 0.472664 0.947211
vt 0.472664 0.961205
vt 0.464438 0.972526
vt 0.451128 0.976850
vt 0.437819 0.972526
vt 0.429593 0.961205
vt 0.429593 0.947211
vt 0.515826 0.976854
vt 0.515826 0.931565
vt 0.589104 0.976855
vt 0.589104 0.931566
vt 0.081813 0.181976
vt 0.075539 0.184015
vt 0.069265 0.181978
vt 0.065388 0.176642
vt 0.065388 0.170045
vt 0.069265 0.164708
vt 0.075539 0.162669
vt 0.081813 0.164706
vt 0.085691 0.170042
vt 0.085691 0.176639
vt 0.545761 0.337754
vt 0.545761 0.471096
vt 0.520295 0.471096
vt 0.520297 0.464992
vt 0.520297 0.438816
vt 0.520297 0.370033
vt 0.520297 0.343858
vt 0.520295 0.337754
vt 0.842833 0.960923
vt 0.827802 0.972245
vt 0.827802 0.648163
vt 0.842833 0.659486
vt 0.011317 0.324082
vt 0.000000 0.309246
vt 0.262191 0.309246
vt 0.262186 0.324082
vt 0.545761 0.204411
vt 0.679095 0.204411
vt 0.679095 0.337754
vt 0.313238 0.690765
vt 0.313238 0.992203
vt 0.062369 0.992203
vt 0.062369 0.690765
vt 0.683347 0.663195
vt 0.683347 0.361757
vt 0.934217 0.361757
vt 0.934217 0.663195
vt 0.262191 0.245627
vt 0.262191 0.078454
vt 0.262191 0.014835
vt 0.262187 0.000000
vt 0.324082 0.000000
vt 0.324082 0.324082
vt 0.988104 0.760672
vt 0.664937 0.760359
vt 0.664937 0.682258
vt 0.988104 0.682258
vt 0.000000 0.972245
vt 0.000000 0.648163
vt 0.064362 0.712525
vt 0.064362 0.907884
vt 0.597020 0.648164
vt 0.597020 0.670950
vt 0.583824 0.670950
vt 0.573721 0.670950
vt 0.551935 0.670950
vt 0.540763 0.670950
vt 0.514510 0.670950
vt 0.514510 0.648163
vt 0.262191 0.648163
vt 0.262191 0.712525
vt 0.601407 0.673310
vt 0.601153 0.349228
vt 0.664763 0.349228
vt 0.664763 0.673310
vt 0.262186 0.324082
vt 0.262191 0.338917
vt 0.000000 0.338917
vt 0.011317 0.324082
vt 0.673340 0.279670
vt 0.935531 0.279670
vt 0.935531 0.343289
vt 0.673340 0.343289
vt 0.996178 0.000000
vt 0.996179 0.167147
vt 0.931817 0.167147
vt 0.931817 0.000000
vt 0.764193 0.648163
vt 0.764193 0.678956
vt 0.690044 0.678956
vt 0.667129 0.678956
vt 0.645750 0.678956
vt 0.623271 0.678956
vt 0.597020 0.678956
vt 0.597020 0.648163
vt 0.275450 0.637343
vt 0.275450 0.961425
vt 0.211089 0.897063
vt 0.211089 0.701705
vt 0.013259 0.961425
vt 0.013259 0.897063
vt 0.112370 0.897063
vt 0.180296 0.897063
vt 0.013259 0.637343
vt 0.192911 0.701705
vt 0.164265 0.701705
vt 0.141104 0.701705
vt 0.036045 0.701705
vt 0.013259 0.701705
vt 0.262191 0.972245
vt 0.095155 0.907884
vt 0.163081 0.907884
vt 0.262191 0.907884
vt 0.274502 0.724335
vt 0.274502 0.891483
vt 0.210140 0.891483
vt 0.210140 0.808986
vt 0.210140 0.779857
vt 0.210140 0.724335
vt 0.429593 0.648163
vt 0.429593 0.972245
vt 0.429593 0.907884
vt 0.429593 0.769994
vt 0.429593 0.737744
vt 0.429593 0.712525
vt 0.845971 0.064362
vt 0.845971 0.259720
vt 0.845971 0.324082
vt 0.845971 0.000000
vt 0.998005 0.064362
vt 0.998068 0.259720
vt 0.998005 0.324082
vt 0.998068 0.000000
vt 0.695218 0.135377
vt 0.695218 0.160596
vt 0.649971 0.160596
vt 0.585318 0.160596
vt 0.555125 0.160596
vt 0.555125 0.135377
vt 0.998131 0.324082
vt 0.998068 0.259720
vt 0.998131 0.064362
vt 0.841922 0.615609
vt 0.841922 0.653667
vt 0.841922 0.759149
vt 0.841922 0.813439
vt 0.786138 0.813439
vt 0.786392 0.615609
vt 0.871055 0.615609
vt 0.871055 0.638396
vt 0.871055 0.653667
vt 0.975641 0.515136
vt 0.975641 0.409654
vt 0.998952 0.409654
vt 0.998952 0.515136
vt 0.871055 0.759149
vt 0.871055 0.766616
vt 0.871055 0.795261
vt 0.871055 0.813439
vt 0.004411 0.183444
vt 0.017594 0.183444
vt 0.017594 0.231173
vt 0.004411 0.231173
vt 0.666634 0.960697
vt 0.666634 0.931565
vt 0.689944 0.931565
vt 0.689944 0.960697
vt 0.713255 0.931565
vt 0.713255 0.960694
vt 0.689944 0.960694
vt 0.689944 0.931566
vt 0.998005 0.000000
vt 0.998005 0.089787
vt 0.998005 0.105482
vt 0.974694 0.105482
vt 0.974694 0.000000
vt 0.514510 0.799170
vt 0.555780 0.799170
vt 0.555780 0.827815
vt 0.514510 0.827815
vt 0.580071 0.827815
vt 0.597020 0.827815
vt 0.597020 0.845993
vt 0.514510 0.845993
vt 0.254518 0.095535
vt 0.254518 0.119824
vt 0.248521 0.119824
vt 0.248521 0.095535
vt 0.580071 0.799170
vt 0.597020 0.799170
vt 0.221139 0.124627
vt 0.221139 0.093700
vt 0.247363 0.093700
vt 0.247363 0.124627
vt 0.254323 0.095943
vt 0.254323 0.120230
vt 0.248327 0.120230
vt 0.248327 0.095943
vt 0.254377 0.094540
vt 0.254377 0.123186
vt 0.248381 0.123186
vt 0.248381 0.094540
vt 0.254089 0.095596
vt 0.254089 0.124242
vt 0.248093 0.124242
vt 0.248093 0.095596
vt 0.540763 0.776008
vt 0.514510 0.776008
vt 0.514510 0.686221
vt 0.551935 0.776008
vt 0.573721 0.776008
vt 0.583824 0.776008
vt 0.597020 0.776008
vt 0.514510 0.791703
vt 0.000000 0.000000
vt 0.000000 0.000000
vt 0.000000 0.000000
vt 0.000000 0.000000
vt 0.000000 0.000000
vt 0.000000 0.000000
vt 0.000000 0.000000
vt 0.000000 0.000000
vt 0.000000 0.000000
vt 0.000000 0.000000
vt 0.396318 0.595200
vt 0.342247 0.595200
vt 0.342247 0.581798
vt 0.396318 0.581798
vt 0.975641 0.620194
vt 0.975641 0.515136
vt 0.997426 0.515136
vt 0.997426 0.620194
vt 0.396275 0.595271
vt 0.342204 0.595271
vt 0.342204 0.581869
vt 0.396275 0.581869
vt 0.000000 0.000000
vt 0.000000 0.000000
vt 0.000000 0.000000
vt 0.000000 0.000000
vt 0.000000 0.000000
vt 0.000000 0.000000
vt 0.360042 0.583822
vt 0.404654 0.583822
vt 0.404654 0.588112
vt 0.360042 0.588112
vt 0.360244 0.594956
vt 0.355530 0.594956
vt 0.355530 0.582806
vt 0.360244 0.582806
vt 0.396496 0.595342
vt 0.342425 0.595342
vt 0.342425 0.581940
vt 0.396496 0.581940
vt 0.354492 0.594597
vt 0.349778 0.594597
vt 0.349778 0.582447
vt 0.354492 0.582447
vt 0.347514 0.580090
vt 0.392126 0.580090
vt 0.392126 0.584835
vt 0.347514 0.584835
vt 0.365648 0.594747
vt 0.360436 0.594747
vt 0.360436 0.582597
vt 0.365648 0.582597
vt 0.349166 0.594677
vt 0.343953 0.594677
vt 0.343953 0.582527
vt 0.349166 0.582527
vt 0.394843 0.595804
vt 0.343072 0.595804
vt 0.343072 0.582972
vt 0.394843 0.582972
vt 0.555125 0.192846
vt 0.555125 0.330735
vt 0.528070 0.330735
vt 0.527816 0.135377
vt 0.585318 0.192846
vt 0.853261 0.067438
vt 0.877859 0.067438
vt 0.930532 0.067438
vt 0.967394 0.067438
vt 0.967394 0.179776
vt 0.853261 0.179776
vt 0.984826 0.128215
vt 0.984826 0.192878
vt 0.976034 0.192878
vt 0.976034 0.128215
vt 0.649971 0.192846
vt 0.695218 0.192846
vt 0.068535 0.095943
vt 0.068535 0.111222
vt 0.037905 0.111222
vt 0.037905 0.095943
vt 0.679584 0.992947
vt 0.679584 0.960697
vt 0.688376 0.960697
vt 0.688376 0.992947
vt 0.702895 0.992944
vt 0.702895 0.960694
vt 0.711687 0.960694
vt 0.711687 0.992944
vt 0.984826 0.192878
vt 0.984826 0.128215
vt 0.993618 0.128215
vt 0.993618 0.192878
vt 0.623234 0.702951
vt 0.623219 0.721152
vt 0.623169 0.746882
vt 0.597020 0.746882
vt 0.645750 0.746882
vt 0.667129 0.746882
vt 0.690044 0.746882
vt 0.764193 0.746882
vt 0.764193 0.845993
vt 0.597020 0.845993
vt 0.538349 0.964662
vt 0.538349 0.940668
vt 0.551299 0.940668
vt 0.551299 0.964662
vt 0.646229 0.721152
vt 0.667174 0.721152
vt 0.666634 0.984804
vt 0.666634 0.960697
vt 0.679584 0.960697
vt 0.679584 0.984804
vt 0.690044 0.721152
vt 0.690044 0.703122
vt 0.646090 0.703009
vt 0.667161 0.703063
vt 0.985562 0.621494
vt 0.985562 0.645546
vt 0.972611 0.645546
vt 0.972611 0.621494
vt 0.590153 0.527330
vt 0.590153 0.501599
vt 0.603104 0.501599
vt 0.603104 0.527330
vt 0.127674 0.122103
vt 0.153405 0.122103
vt 0.153450 0.145113
vt 0.127718 0.144685
vt 0.158978 0.123031
vt 0.184708 0.123076
vt 0.184708 0.145946
vt 0.158978 0.145946
vt 0.114344 0.180509
vt 0.091461 0.180451
vt 0.091429 0.156344
vt 0.114344 0.156344
vt 0.096916 0.144792
vt 0.096940 0.121936
vt 0.120934 0.121936
vt 0.120968 0.144416
vt 0.564250 0.963582
vt 0.564250 0.940668
vt 0.577200 0.940668
vt 0.577200 0.963582
vt 0.590153 0.501599
vt 0.590153 0.475868
vt 0.603104 0.475868
vt 0.603104 0.501599
vt 0.590151 0.963550
vt 0.590151 0.940668
vt 0.603101 0.940668
vt 0.603101 0.963550
vt 0.624679 0.388472
vt 0.624679 0.411052
vt 0.611729 0.411052
vt 0.611729 0.388472
vt 0.551299 0.963674
vt 0.551299 0.940668
vt 0.564250 0.940668
vt 0.564250 0.963674
vt 0.577200 0.963580
vt 0.577200 0.940668
vt 0.590151 0.940668
vt 0.590151 0.963580
vt 0.597018 0.900538
vt 0.597018 0.877683
vt 0.609969 0.877683
vt 0.609969 0.900538
vt 0.713255 0.983027
vt 0.713255 0.957296
vt 0.726205 0.957296
vt 0.726205 0.983027
vt 0.757711 0.954280
vt 0.757711 0.931804
vt 0.770661 0.931804
vt 0.770661 0.954280
vt 0.603101 0.963534
vt 0.603101 0.940668
vt 0.616051 0.940668
vt 0.616051 0.963534
vt 0.689944 0.984860
vt 0.689944 0.960694
vt 0.702895 0.960694
vt 0.702895 0.984860
vt 0.726205 0.931565
vt 0.726205 0.957296
vt 0.713255 0.957296
vt 0.713255 0.931565
vt 0.935213 0.665708
vt 0.935213 0.364270
vt 0.997104 0.352948
vt 0.997104 0.677030
vt 0.672785 0.343441
vt 0.934976 0.343441
vt 0.934971 0.358277
vt 0.684102 0.358277
vt 0.666162 0.674608
vt 0.666162 0.350526
vt 0.680797 0.361848
vt 0.680797 0.663286
vt 0.987740 0.682541
vt 0.668408 0.682541
vt 0.682191 0.664472
vt 0.987734 0.664472
vt 0.061754 0.690872
vt 0.061754 0.992310
vt -0.000137 1.003632
vt -0.000137 0.679550
vt 0.262191 0.402536
vt 0.000000 0.402536
vt 0.764193 0.972245
vt 0.764193 0.648163
vt 0.000000 0.245627
vt 0.074792 0.000002
vt 0.074792 0.074247
vt 0.038001 0.037125
vt 0.074469 0.074077
vt 0.037018 0.036954
vt 0.074469 -0.000169
vt 0.037731 0.038246
vt 0.000774 0.075203
vt 0.000440 0.000963
vt 0.075158 -0.001293
vt 0.075158 0.072948
vt 0.038035 0.036158
vt 0.074140 -0.000088
vt 0.074140 0.073929
vt 0.037125 0.036921
vt 0.073708 -0.000815
vt 0.073708 0.073430
vt 0.036584 0.036302
vt 0.001022 0.074996
vt 0.038030 0.037994
vt 0.075038 0.074996
vt 0.038458 0.037702
vt 0.001449 0.074717
vt 0.001449 0.000700
vt 0.000218 -0.000186
vt 0.074235 -0.000186
vt 0.037220 0.036823
vt 0.074905 0.074019
vt 0.037783 0.036903
vt 0.074905 -0.000226
vt 0.037048 0.035921
vt 0.074177 -0.001203
vt 0.074177 0.073043
vt 0.074365 -0.000542
vt 0.074365 0.073704
vt 0.037248 0.036580
vn 0.3090 0.9511 0.0000
vn 0.8090 0.5878 0.0000
vn 1.0000 -0.0000 -0.0000
vn 0.8090 -0.5878 -0.0000
vn 0.3090 -0.9511 0.0000
vn -0.3090 -0.9511 -0.0000
vn -0.8090 -0.5878 -0.0000
vn -1.0000 0.0000 0.0000
vn 0.0000 0.0000 1.0000
vn -0.8090 0.5878 0.0000
vn -0.3090 0.9511 0.0000
vn 0.0000 0.0000 -1.0000
vn -1.0000 0.0000 -0.0084
vn 0.0000 -0.6067 -0.7949
vn 0.7949 -0.6067 0.0000
vn 0.0000 -1.0000 0.0000
vn -0.0000 1.0000 0.0000
vn 1.0000 -0.0000 -0.0084
vn 0.0010 -1.0000 0.0000
vn -0.0006 -1.0000 -0.0011
vn -0.7949 -0.6067 0.0000
vn 0.0000 0.1428 -0.9898
vn 0.0000 0.2581 0.9661
vn 0.0000 1.0000 -0.0015
vn 0.0000 1.0000 0.0013
vn -0.0000 -0.9999 -0.0141
vn -0.0000 -0.9998 0.0186
vn -0.0000 0.0026 1.0000
vn 0.0000 1.0000 -0.0018
vn 0.0000 1.0000 -0.0020
vn -0.7949 0.6067 0.0000
vn 0.0000 0.6067 -0.7949
vn 0.7949 0.6067 0.0000
vn 0.0000 -0.6038 0.7971
vn 0.0000 0.6038 0.7971
vn 0.6038 0.0000 0.7971
vn -0.6038 0.0000 0.7971
vn 0.0000 0.7971 -0.6038
vn 0.6038 -0.7971 0.0000
vn 0.0000 0.7971 0.6038
vn -0.6038 0.7971 0.0000
vn 0.6038 0.7971 0.0000
vn -0.6038 -0.7971 0.0000
vn 0.0000 -0.7971 0.6038
vn 0.0000 -0.7971 -0.6038
usemtl Material.001
s off
f 1/1/1 2/2/1 4/3/1 3/4/1
f 3/5/2 4/6/2 6/7/2 5/8/2
f 5/8/3 6/7/3 8/9/3 7/10/3
f 7/10/4 8/9/4 10/11/4 9/12/4
f 9/13/5 10/14/5 12/15/5 11/16/5
f 11/16/6 12/15/6 14/17/6 13/18/6
f 13/19/7 14/20/7 16/21/7 15/22/7
f 15/22/8 16/21/8 18/23/8 17/24/8
f 4/25/9 2/26/9 20/27/9 18/28/9 16/29/9 14/30/9 12/31/9 10/32/9 8/33/9 6/34/9
f 17/24/10 18/23/10 20/35/10 19/36/10
f 19/37/11 20/38/11 2/2/11 1/1/11
f 1/39/12 3/40/12 5/41/12 7/42/12 9/43/12 11/44/12 13/45/12 15/46/12 17/47/12 19/48/12
f 57/49/13 58/50/13 74/51/13 195/52/13 75/53/13 76/54/13 199/55/13 73/56/13
f 59/57/14 200/58/14 201/59/14 63/60/14
f 63/61/15 201/62/15 202/63/15 65/64/15
f 61/65/9 62/66/9 58/67/9 57/49/9
f 59/68/16 63/69/16 65/70/16 73/71/16
f 64/72/17 60/73/17 74/74/17 66/75/17
f 65/64/18 202/63/18 69/76/18 67/77/18 198/78/18 66/79/18 62/80/18 61/81/18
f 67/82/3 68/83/3 197/84/3 198/85/3
f 72/86/19 68/87/19 78/88/19 81/89/19
f 79/90/3 119/91/3 126/92/3 125/93/3 122/94/3 121/95/3 118/96/3 96/97/3
f 68/87/20 67/98/20 77/99/20 78/88/20
f 68/100/12 72/101/12 196/102/12 197/103/12
f 73/104/21 199/105/21 200/106/21 59/107/21
f 72/108/8 75/109/8 195/110/8 196/111/8
f 76/112/12 75/113/12 83/114/12 84/115/12
f 82/116/8 161/117/8 170/118/8 169/119/8 166/120/8 165/121/8 160/122/8 81/123/8
f 70/124/17 71/125/17 82/126/17 80/127/17
f 71/125/17 76/128/17 84/129/17 162/130/17 161/131/17 82/126/17
f 69/132/17 70/124/17 80/127/17 108/133/17 107/134/17 120/135/17 119/136/17 79/137/17
f 75/138/16 72/86/16 81/89/16 160/139/16 159/140/16 83/141/16
f 67/142/12 69/143/12 79/144/12 96/145/12 94/146/12 77/147/12
f 86/148/22 88/149/22 92/150/22 149/151/22 147/152/22 90/153/22
f 80/154/9 82/155/9 88/156/9 86/157/9
f 81/158/9 78/159/9 85/160/9 87/161/9
f 90/162/12 147/163/12 153/164/12 151/165/12 148/166/12 146/167/12
f 87/161/23 85/168/23 89/169/23 91/170/23
f 94/171/3 98/172/3 97/173/3 93/174/3 78/175/3 77/176/3
f 96/177/3 118/178/3 100/179/3 98/172/3 94/171/3
f 97/180/17 98/181/17 102/182/17 101/183/17
f 97/173/3 99/184/3 106/185/3 105/186/3 95/187/3 93/174/3
f 102/188/3 104/189/3 103/190/3 101/191/3
f 98/192/9 100/193/9 104/194/9 102/195/9
f 99/196/12 97/197/12 101/198/12 103/199/12
f 100/200/16 117/201/16 99/202/16 103/203/16 104/204/16
f 106/205/3 111/206/3 110/207/3 105/208/3
f 105/208/3 110/207/3 109/209/3 108/210/3 80/211/3 95/212/3
f 111/213/9 112/214/9 116/215/9 115/216/9
f 109/209/3 112/217/3 107/218/3 108/210/3
f 114/219/3 115/220/3 116/221/3 113/222/3
f 109/223/12 110/224/12 114/225/12 113/226/12
f 110/227/17 111/228/17 115/229/17 114/230/17
f 112/231/16 109/232/16 113/233/16 116/234/16
f 118/96/3 121/95/3 124/235/3 117/236/3 100/237/3
f 117/236/3 124/235/3 123/238/3 128/239/3 127/240/3 120/241/3 107/218/3 112/217/3 111/206/3 106/205/3 99/242/3
f 122/243/9 125/244/9 134/245/9 130/246/9
f 121/247/9 122/243/9 130/246/9 129/248/9
f 123/249/9 124/250/9 133/251/9 132/252/9
f 127/240/3 126/92/3 119/91/3 120/241/3
f 130/253/16 132/254/16 143/255/16 142/256/16
f 132/257/3 130/258/3 134/259/3 131/260/3
f 135/261/16 136/262/16 139/263/16 138/264/16
f 124/250/9 121/247/9 129/248/9 133/251/9
f 128/265/9 123/249/9 132/252/9 131/266/9
f 126/267/9 127/268/9 136/269/9 135/270/9
f 127/268/9 128/265/9 131/266/9 136/269/9
f 125/244/9 126/267/9 135/270/9 134/245/9
f 140/271/3 137/272/3 138/273/3 139/274/3
f 136/275/12 131/276/12 140/277/12 139/278/12
f 131/279/17 134/280/17 137/281/17 140/282/17
f 134/283/9 135/284/9 138/285/9 137/286/9
f 144/287/3 141/288/3 142/289/3 143/290/3
f 132/291/12 133/292/12 144/293/12 143/294/12
f 129/295/9 130/296/9 142/297/9 141/298/9
f 133/299/17 129/300/17 141/301/17 144/302/17
f 146/167/12 148/166/12 150/303/12 145/304/12 91/305/12 89/306/12
f 148/166/12 151/165/12 152/307/12 150/303/12
f 150/308/12 152/309/12 154/310/12 149/311/12 92/312/12 145/313/12
f 154/314/8 152/315/8 156/316/8 158/317/8
f 154/318/12 153/164/12 147/163/12 149/319/12
f 156/320/12 155/321/12 157/322/12 158/323/12
f 152/324/17 151/325/17 155/326/17 156/327/17
f 153/328/16 154/329/16 158/330/16 157/331/16
f 151/332/3 153/333/3 157/334/3 155/335/3
f 160/122/8 165/121/8 177/336/8 172/337/8 164/338/8 159/339/8
f 159/339/8 164/338/8 163/340/8 168/341/8 167/342/8 162/343/8 84/344/8 83/345/8
f 177/346/24 165/347/24 181/348/24 194/349/24
f 163/340/8 174/350/8 173/351/8 168/341/8
f 176/352/25 169/353/25 187/354/25 193/355/25
f 167/342/8 171/356/8 175/357/8 170/118/8 161/117/8 162/343/8
f 174/350/8 172/337/8 177/336/8 178/358/8
f 173/351/8 174/350/8 178/358/8 176/359/8
f 171/356/8 173/351/8 176/359/8 175/357/8
f 166/360/26 178/361/26 184/362/26 182/363/26
f 171/364/16 167/365/16 185/366/16 191/367/16
f 176/359/8 178/358/8 166/120/8 169/119/8
f 180/368/8 183/369/8 192/370/8 179/371/8
f 186/372/8 189/373/8 191/374/8 185/375/8
f 190/376/8 193/377/8 187/378/8 188/379/8
f 184/380/8 194/381/8 181/382/8 182/383/8
f 167/384/9 168/385/9 186/386/9 185/387/9
f 174/388/27 163/389/27 179/390/27 192/391/27
f 175/392/28 176/393/28 193/394/28 190/395/28
f 163/396/9 164/397/9 180/398/9 179/399/9
f 172/400/12 174/401/12 192/402/12 183/403/12
f 169/404/12 170/405/12 188/406/12 187/407/12
f 178/408/28 177/409/28 194/410/28 184/411/28
f 168/412/29 173/413/29 189/414/29 186/415/29
f 165/416/12 166/417/12 182/418/12 181/419/12
f 173/420/12 171/421/12 191/422/12 189/423/12
f 170/424/16 175/425/16 190/426/16 188/427/16
f 164/428/30 172/429/30 183/430/30 180/431/30
f 66/432/17 74/433/17 58/434/17 62/435/17
f 196/436/31 195/437/31 74/438/31 60/439/31
f 197/440/32 196/441/32 60/442/32 64/443/32
f 198/444/33 197/445/33 64/446/33 66/447/33
f 73/448/16 65/449/16 61/450/16 57/451/16
f 200/106/8 199/105/8 76/452/8 71/453/8
f 201/59/12 200/58/12 71/454/12 70/455/12
f 202/63/3 201/62/3 70/456/3 69/76/3
s 1
f 21/457/34 22/458/34 23/459/34
f 24/460/35 25/461/35 26/462/35
f 27/463/36 28/464/36 29/465/36
f 30/466/37 31/467/37 32/468/37
f 33/469/38 34/470/38 35/471/38
f 36/472/39 37/473/39 38/474/39
f 39/475/40 40/476/40 41/477/40
f 42/478/41 43/479/41 44/480/41
f 45/481/42 46/482/42 47/483/42
f 48/484/43 49/485/43 50/486/43
f 51/487/44 52/488/44 53/489/44
f 54/490/45 55/491/45 56/492/45
